<svg xmlns="http://www.w3.org/2000/svg" width="363.035" height="311.835" viewBox="0 0 363.035 311.835"><g transform="translate(-143.482 -169.083)"><path d="M288.146,239.765a74.391,74.391,0,0,0-74.375,74.411v.973a78.911,78.911,0,0,0,142.614,46.638l-30.6-22.682a36.9,36.9,0,0,1-68.464-8.385H360.575c.075-.15.075-.224.15-.374.15-.749.374-1.5.449-2.246a77.734,77.734,0,0,0,1.272-13.924A74.279,74.279,0,0,0,288.146,239.765Zm-27.311,57.493a29.529,29.529,0,0,1,56.866,0Z" fill="#006"></path><path d="M198.827,239.765H148.37V394.127h50.457Z" fill="#006"></path><path d="M203.857,199.27a30.188,30.188,0,1,1-30.187-30.187A30.187,30.187,0,0,1,203.857,199.27Z" fill="#46beff"></path><path d="M143.482,463.9c0,10.134,7.33,17.018,18.293,17.018,10.9,0,18.229-6.884,18.229-17.018v-29h-8.222v28.936c0,6.119-4.016,9.561-10.071,9.561s-10.007-3.442-10.007-9.5v-29h-8.222Z" fill="#006"></path><path d="M190.864,480.153h8.222V454.085c0-2.677-.446-7.011-.446-7.011h.127a68.7,68.7,0,0,0,3.761,7.011l17.145,26.068h8.158V434.9h-8.158v26.132c0,2.677.446,7.011.446,7.011h-.127a68.586,68.586,0,0,0-3.761-7.011L199.086,434.9h-8.222Z" fill="#006"></path><path d="M239.289,480.153h8.222V434.9h-8.222Z" fill="#006"></path><path d="M269.665,480.153h8.159L294.332,434.9h-8.8l-10.007,29.51c-.892,2.613-1.657,6.629-1.721,6.629h-.127c-.064,0-.829-4.016-1.721-6.629l-9.943-29.51h-8.859Z" fill="#006"></path><path d="M299.976,480.153h28.108v-7.075H308.2V460.9h15.233V453.83H308.2V441.975h18.866V434.9H299.976Z" fill="#006"></path><path d="M336.637,480.153h8.222v-16.89h7.9l8.987,16.89h9.178l-9.306-16.89a11.048,11.048,0,0,0-1.529-2.231V460.9c4.78-1.912,7.648-6.947,7.648-12.364,0-5.992-2.868-10.326-7.393-12.365-1.976-.893-4.207-1.275-9.115-1.275h-14.6Zm8.222-24.029V441.975h6.246c6.437,0,8.286,2.677,8.286,7.011,0,4.525-2.741,7.138-7.139,7.138Z" fill="#006"></path><path d="M375.147,474.735a21.905,21.905,0,0,0,15.615,6.183c9.433,0,14.914-6.055,14.914-13.257,0-14.469-21.288-12.493-21.288-20.524,0-3.186,3-5.417,6.82-5.417,5.673,0,10.007,3.951,10.007,3.951l3.569-6.692s-4.589-4.844-13.512-4.844c-8.668,0-15.169,5.609-15.169,13.13,0,13.894,21.351,12.492,21.351,20.587,0,3.7-3.123,5.481-6.564,5.481-6.374,0-11.282-4.78-11.282-4.78Z" fill="#006"></path><path d="M413.88,480.153H422.1V434.9H413.88Z" fill="#006"></path><path d="M442.918,480.153h8.222V441.975h14.851V434.9H428.067v7.075h14.851Z" fill="#006"></path><path d="M483.253,480.153h8.222v-18.93L506.517,434.9h-9.306L490.2,448.221c-1.466,2.8-2.741,6.055-2.741,6.055h-.127c-.064.064-1.275-3.251-2.741-6.055L477.517,434.9h-9.306l15.042,26.323Z" fill="#006"></path></g></svg>